<svg xmlns="http://www.w3.org/2000/svg" viewBox="0 0 48 48" width="48" height="48" aria-label="Güneş Klima">
  <g transform="translate(24,24) scale(1.28) translate(-20,-20)">
    <!-- Sol Yarım: Güneş -->
    <path d="M 20,8 A 12,12 0 0,0 20,32 L 20,20 Z" fill="#0066CC"/>
    <path d="M 12,20 L 4,20 M 14,14 L 8,8 M 14,26 L 8,32 M 20,12 L 20,4 M 20,28 L 20,36" stroke="#0066CC" stroke-width="3" stroke-linecap="round"/>
    <!-- Sağ Yarım: Kar Tanesi -->
    <path d="M 20,20 L 36,20 M 20,20 L 31.3,8.7 M 20,20 L 31.3,31.3" stroke="#003D7A" stroke-width="3" stroke-linecap="round"/>
    <path d="M 28,20 L 32,16 M 28,20 L 32,24 M 27,14.3 L 32,14.3 M 27,14.3 L 27,9.3 M 27,25.7 L 32,25.7 M 27,25.7 L 27,30.7" stroke="#003D7A" stroke-width="2" stroke-linecap="round"/>
    <!-- Merkez -->
    <circle cx="20" cy="20" r="4.5" fill="#FFFFFF"/>
    <circle cx="20" cy="20" r="2.8" fill="#0066CC"/>
  </g>
</svg>
