<svg xmlns="http://www.w3.org/2000/svg" viewBox="0 0 220 50" width="220" height="50" aria-label="Güneş Klima Logo"><metadata><rdf:RDF xmlns:rdf="http://www.w3.org/1999/02/22-rdf-syntax-ns#" xmlns:dc="http://purl.org/dc/elements/1.1/"><rdf:Description><dc:creator>RealFaviconGenerator</dc:creator><dc:source>https://realfavicongenerator.net</dc:source></rdf:Description></rdf:RDF></metadata><g transform="translate(5, 5)">
    <!-- Sol Yarım: Güneş -->
    <path d="M 20,8 A 12,12 0 0,0 20,32 L 20,20 Z" fill="#0066CC"></path>
    <path d="M 12,20 L 4,20 M 14,14 L 8,8 M 14,26 L 8,32 M 20,12 L 20,4 M 20,28 L 20,36" stroke="#0066CC" stroke-width="3" stroke-linecap="round"></path>
    
    <!-- Sağ Yarım: Kar Tanesi -->
    <path d="M 20,20 L 36,20 M 20,20 L 31.3,8.7 M 20,20 L 31.3,31.3" stroke="#003D7A" stroke-width="3" stroke-linecap="round"></path>
    <!-- Kar Tanesi Dalları -->
    <path d="M 28,20 L 32,16 M 28,20 L 32,24 M 27,14.3 L 32,14.3 M 27,14.3 L 27,9.3 M 27,25.7 L 32,25.7 M 27,25.7 L 27,30.7" stroke="#003D7A" stroke-width="2" stroke-linecap="round"></path>
    
    <!-- Merkez Göbek -->
    <circle cx="20" cy="20" r="4.5" fill="#FFFFFF"></circle>
    <circle cx="20" cy="20" r="2.8" fill="#0066CC"></circle>
  </g><text x="55" y="32" font-family="'Inter', -apple-system, BlinkMacSystemFont, sans-serif" font-size="18" font-weight="800" fill="#003D7A" letter-spacing="0.5">GÜNEŞ</text><text x="130" y="32" font-family="'Inter', -apple-system, BlinkMacSystemFont, sans-serif" font-size="18" font-weight="400" fill="#0066CC" letter-spacing="0.5">KLİMA</text></svg>